# xmcd
#
# Track frame offsets: 
#        150
#        22997
#        41682
#        60882
#        75052
#        98812
#        119297
#        137725
#        155210
#        182190
#        204425
#        227742
#        252495
#
# Disc length: 3642 seconds
#
# Revision: 0
# Processed by: cddbd v1.5PL3 Copyright (c) Steve Scherf et al.
# Submitted via: ExactAudioCopy v0.95a4
#
DISCID=a20e380d
DTITLE=Bobby Mack and NIght Train - Honeytrap
DYEAR=1993
DGENRE=Blues
TTITLE0=Honeytrap
TTITLE1=Promis Me love
TTITLE2=Only Getting Second Best
TTITLE3=Get Your Love
TTITLE4=I'm Gonna Love You
TTITLE5=Tell Me Who (Do You Love)
TTITLE6=Come Back baby
TTITLE7=Love Can Be Cruel
TTITLE8=That's Alright
TTITLE9=Got A Feeling
TTITLE10=Eazy Bab
TTITLE11=So Low Down
TTITLE12=Drivin' Sideways
EXTD=
EXTT0=
EXTT1=
EXTT2=
EXTT3=
EXTT4=
EXTT5=
EXTT6=
EXTT7=
EXTT8=
EXTT9=
EXTT10=
EXTT11=
EXTT12=
PLAYORDER=
